#!OML:ASF X:\für Bonn\!DataBase\2005_08_10_Bjorn_Final\c3d\bjorn.ASF
:FULLY-SPECIFIED
:DEGREES
243
root 0.490078 3.7739 9.55033 -2405.82 -15.0417 180.488
lowerback 52.1905 4.07999 4.47105
upperback 22.7992 -5.21593 0.86722
thorax 4.8677 -7.9182 0.102188
lowerneck -5.7886 3.63758 -0.965364
upperneck 17.7472 5.67911 -9.92643
head 6.62136 1.43665 -2.64948
rclavicle -4.20927e-014 1.66979e-014
rhumerus -406.071 -24.2408 288.782
rradius 22.7604
rwrist -26.5529
rhand -14.0547 -10.4347
rfingers 7.12502
rthumb 12.0763 -40.0663
lclavicle -4.20927e-014 1.66979e-014
lhumerus -47.3905 -37.074 99.7729
lradius 30.3666
lwrist 47.8378
lhand -26.5801 21.563
lfingers 7.12502
lthumb -0.0145486 771.543
rfemur -248.119 -152.22 177.563
rtibia 112.948
rfoot 29.2146 14.6333
rtoes 7.65659
lfemur 106.368 148.592 176.38
ltibia 143.993
lfoot -1.72839 -22.7563
ltoes -18.4096
244
root 0.478811 3.72504 9.52946 -2405.95 -14.9581 180.403
lowerback 52.2476 4.06912 4.52535
upperback 22.9327 -5.32999 0.856653
thorax 5.02033 -8.0237 0.0789862
lowerneck -5.59454 3.84001 -0.604733
upperneck 17.3028 5.92083 -9.97651
head 6.46704 1.61719 -2.7028
rclavicle 3.27498e-014 -4.57205e-015
rhumerus -406.025 -22.3461 287.488
rradius 24.0411
rwrist -28.5711
rhand -14.3289 -10.919
rfingers 7.12502
rthumb 11.8119 -40.5658
lclavicle 3.27498e-014 -4.57205e-015
lhumerus -48.1638 -37.7147 100.223
lradius 31.1933
lwrist 48.8761
lhand -26.7393 21.7763
lfingers 7.12502
lthumb -0.168288 771.756
rfemur -248.451 -151.847 177.61
rtibia 113.172
rfoot 29.5971 14.896
rtoes 8.58262
lfemur 105.687 150.721 175.346
ltibia 143.554
lfoot -0.567734 -20.9805
ltoes -18.4076
245
root 0.467796 3.6752 9.50788 -2406.08 -14.8812 180.329
lowerback 52.2845 4.06192 4.57607
upperback 23.0848 -5.45089 0.864973
thorax 5.1992 -8.13902 0.074789
lowerneck -5.40595 4.05769 -0.256534
upperneck 16.843 6.18648 -10.031
head 6.31193 1.80829 -2.7544
rclavicle -2.04251e-014 -7.7526e-015
rhumerus -406.064 -20.5264 286.339
rradius 25.3359
rwrist -30.4933
rhand -14.6091 -11.3789
rfingers 7.12502
rthumb 11.5418 -41.0411
lclavicle -2.04251e-014 -7.7526e-015
lhumerus -48.8759 -38.2789 100.631
lradius 32.02
lwrist 49.8509
lhand -26.9165 21.9883
lfingers 7.12502
lthumb -0.339433 771.968
rfemur -248.779 -151.469 177.655
rtibia 113.4
rfoot 29.8992 15.1928
rtoes 9.15891
lfemur 105.047 152.95 174.299
ltibia 142.99
lfoot 0.552369 -19.2587
ltoes -18.4634
246
root 0.456557 3.62485 9.48511 -2406.25 -14.7956 180.26
lowerback 52.3457 4.05687 4.6599
upperback 23.2384 -5.55872 0.881395
thorax 5.37905 -8.24828 0.0596954
lowerneck -5.19199 4.28005 0.139964
upperneck 16.3714 6.45487 -10.0918
head 6.15225 2.00467 -2.81708
rclavicle -1.28216e-014 -9.74045e-015
rhumerus -406.229 -18.8476 285.345
rradius 26.6506
rwrist -32.3146
rhand -14.8481 -11.8538
rfingers 7.12502
rthumb 11.3112 -41.5288
lclavicle -1.28216e-014 -9.74045e-015
lhumerus -49.6162 -38.8742 101.04
lradius 32.8804
lwrist 50.8091
lhand -27.0816 22.1662
lfingers 7.12502
lthumb -0.498864 772.145
rfemur -249.077 -151.092 177.697
rtibia 113.634
rfoot 30.1971 15.4371
rtoes 9.71312
lfemur 104.517 155.269 173.32
ltibia 142.313
lfoot 1.69601 -17.6586
ltoes -18.7222
247
root 0.445036 3.57452 9.45981 -2406.42 -14.6813 180.198
lowerback 52.4324 4.03083 4.79919
upperback 23.3797 -5.66252 0.880606
thorax 5.54063 -8.34646 0.00246735
lowerneck -4.95089 4.50877 0.560942
upperneck 15.9094 6.7291 -10.1503
head 5.994 2.20464 -2.88432
rclavicle 2.3059e-014 -2.98177e-015
rhumerus -406.519 -17.1947 284.398
rradius 27.9953
rwrist -34.1073
rhand -15.0783 -12.3118
rfingers 7.12502
rthumb 11.0892 -41.9988
lclavicle 2.3059e-014 -2.98177e-015
lhumerus -50.4564 -39.5308 101.468
lradius 33.8107
lwrist 51.8301
lhand -27.3038 22.337
lfingers 7.12502
lthumb -0.713466 772.316
rfemur -249.353 -150.731 177.756
rtibia 113.877
rfoot 30.4387 15.6803
rtoes 10.1501
lfemur 104.1 157.392 172.476
ltibia 141.574
lfoot 2.88694 -16.1939
ltoes -18.8301
248
root 0.43308 3.52253 9.43341 -2406.6 -14.5803 180.137
lowerback 52.5222 4.0015 4.95535
upperback 23.5241 -5.76325 0.884831
thorax 5.70681 -8.44198 -0.0590858
lowerneck -4.67374 4.73838 0.97745
upperneck 15.3605 7.00425 -10.2171
head 5.80476 2.41012 -2.95451
rclavicle 6.04802e-014 -9.93923e-016
rhumerus -406.893 -15.6587 283.549
rradius 29.3632
rwrist -35.8486
rhand -15.3329 -12.7394
rfingers 7.12502
rthumb 10.8436 -42.4394
lclavicle 6.04802e-014 -9.93923e-016
lhumerus -51.2397 -40.1064 101.833
lradius 34.7308
lwrist 52.7417
lhand -27.5015 22.4682
lfingers 7.12502
lthumb -0.904494 772.446
rfemur -249.641 -150.348 177.792
rtibia 114.132
rfoot 30.7044 15.9314
rtoes 10.691
lfemur 103.741 159.418 171.705
ltibia 140.793
lfoot 3.98124 -14.9493
ltoes -19.0549
249
root 0.421076 3.47084 9.40574 -2406.79 -14.4824 180.079
lowerback 52.5997 3.98127 5.09833
upperback 23.682 -5.86896 0.909952
thorax 5.89306 -8.54784 -0.0948189
lowerneck -4.42512 4.98893 1.38218
upperneck 14.8248 7.31685 -10.3354
head 5.6311 2.6255 -3.03743
rclavicle 1.04362e-015 6.36111e-015
rhumerus -407.288 -14.1872 282.81
rradius 30.6913
rwrist -37.4365
rhand -15.535 -13.1157
rfingers 7.12502
rthumb 10.6487 -42.8259
lclavicle 1.04362e-015 6.36111e-015
lhumerus -51.9061 -40.5366 102.14
lradius 35.5943
lwrist 53.5024
lhand -27.7482 22.574
lfingers 7.12502
lthumb -1.14274 772.551
rfemur -249.911 -149.958 177.83
rtibia 114.387
rfoot 30.986 16.1445
rtoes 11.2419
lfemur 103.455 161.188 171.042
ltibia 139.992
lfoot 5.03886 -13.9719
ltoes -18.9328
250
root 0.408698 3.41857 9.37843 -2406.95 -14.3683 180.018
lowerback 52.6487 3.95813 5.27057
upperback 23.8512 -5.96509 0.932005
thorax 6.09535 -8.64415 -0.153974
lowerneck -4.15133 5.24611 1.78089
upperneck 14.2311 7.63822 -10.4613
head 5.43845 2.84781 -3.12261
rclavicle 3.86139e-014 -1.11319e-014
rhumerus -407.722 -12.795 282.116
rradius 32.0175
rwrist -39.0101
rhand -15.7617 -13.4561
rfingers 7.12502
rthumb 10.43 -43.1774
lclavicle 3.86139e-014 -1.11319e-014
lhumerus -52.4899 -40.8693 102.358
lradius 36.4339
lwrist 54.1287
lhand -27.9607 22.6647
lfingers 7.12502
lthumb -1.34792 772.64
rfemur -250.225 -149.593 177.897
rtibia 114.649
rfoot 31.2777 16.4209
rtoes 11.748
lfemur 103.192 162.771 170.414
ltibia 139.141
lfoot 6.08584 -13.3187
ltoes -18.6364
251
root 0.396575 3.36527 9.34879 -2407.13 -14.2393 179.951
lowerback 52.7152 3.93635 5.46095
upperback 24.0216 -6.05832 0.95886
thorax 6.29902 -8.74072 -0.217722
lowerneck -3.8906 5.5098 2.09381
upperneck 13.6074 7.97101 -10.5556
head 5.23801 3.07348 -3.18408
rclavicle 1.32192e-014 -1.21259e-014
rhumerus -408.189 -11.4937 281.5
rradius 33.3372
rwrist -40.4569
rhand -15.9655 -13.809
rfingers 7.12502
rthumb 10.2334 -43.5401
lclavicle 1.32192e-014 -1.21259e-014
lhumerus -53.0038 -41.0866 102.495
lradius 37.2534
lwrist 54.61
lhand -28.2004 22.7071
lfingers 7.12502
lthumb -1.57948 772.681
rfemur -250.532 -149.249 177.966
rtibia 114.913
rfoot 31.6144 16.601
rtoes 12.5294
lfemur 103.026 164.171 169.825
ltibia 138.209
lfoot 7.16433 -12.8927
ltoes -18.043
252
root 0.383795 3.3113 9.31925 -2407.28 -14.1265 179.87
lowerback 52.7643 3.91731 5.64727
upperback 24.186 -6.1406 0.991648
thorax 6.49824 -8.82778 -0.276652
lowerneck -3.60274 5.7521 2.30244
upperneck 12.9699 8.27304 -10.5983
head 5.02273 3.28194 -3.21693
rclavicle -1.59276e-014 -4.87022e-015
rhumerus -408.697 -10.238 280.949
rradius 34.6252
rwrist -41.774
rhand -16.139 -14.1326
rfingers 7.12502
rthumb 10.066 -43.8719
lclavicle -1.59276e-014 -4.87022e-015
lhumerus -53.4242 -41.2195 102.571
lradius 38.0037
lwrist 54.9582
lhand -28.4173 22.7265
lfingers 7.12502
lthumb -1.78894 772.699
rfemur -250.907 -148.887 178.044
rtibia 115.188
rfoot 31.9463 16.8356
rtoes 13.1501
lfemur 102.867 165.471 169.21
ltibia 137.229
lfoot 8.20953 -12.5235
ltoes -17.5916
253
root 0.370407 3.25805 9.29038 -2407.39 -13.9951 179.804
lowerback 52.787 3.88888 5.85938
upperback 24.3323 -6.20467 1.05575
thorax 6.6825 -8.89825 -0.317484
lowerneck -3.26756 5.96065 2.34819
upperneck 12.3104 8.5265 -10.5713
head 4.78145 3.46321 -3.20834
rclavicle -3.59676e-014 5.31749e-015
rhumerus -409.239 -9.08664 280.51
rradius 35.8897
rwrist -42.968
rhand -16.2991 -14.4192
rfingers 7.12502
rthumb 9.91165 -44.1659
lclavicle -3.59676e-014 5.31749e-015
lhumerus -53.8394 -41.3319 102.714
lradius 38.7235
lwrist 55.2257
lhand -28.6358 22.6918
lfingers 7.12502
lthumb -2.00001 772.662
rfemur -251.315 -148.528 178.158
rtibia 115.454
rfoot 32.3218 16.9941
rtoes 13.7133
lfemur 102.726 166.642 168.655
ltibia 136.215
lfoot 9.25066 -12.1192
ltoes -16.7643
254
root 0.358175 3.20536 9.26323 -2407.48 -13.8596 179.738
lowerback 52.7913 3.86103 6.06421
upperback 24.477 -6.26772 1.11182
thorax 6.86595 -8.96486 -0.364588
lowerneck -2.96961 6.16344 2.32709
upperneck 11.6621 8.77173 -10.4905
head 4.54541 3.63845 -3.17411
rclavicle -5.67903e-014 2.6985e-014
rhumerus -409.824 -8.03642 280.116
rradius 37.1575
rwrist -43.9962
rhand -16.4234 -14.69
rfingers 7.12502
rthumb 9.79171 -44.4423
lclavicle -5.67903e-014 2.6985e-014
lhumerus -54.306 -41.4214 102.83
lradius 39.5442
lwrist 55.508
lhand -28.8807 22.6714
lfingers 7.12502
lthumb -2.23651 772.639
rfemur -251.765 -148.174 178.316
rtibia 115.714
rfoot 32.65 17.1647
rtoes 14.0775
lfemur 102.589 167.638 168.143
ltibia 135.209
lfoot 10.234 -11.7279
ltoes -16.1228
255
root 0.345284 3.15154 9.23628 -2407.55 -13.7345 179.687
lowerback 52.7673 3.82137 6.29239
upperback 24.6392 -6.33763 1.15469
thorax 7.07204 -9.02922 -0.439262
lowerneck -2.71119 6.36073 2.34563
upperneck 11.0215 9.00988 -10.4129
head 4.32044 3.81045 -3.14882
rclavicle 3.45078e-014 -3.11843e-015
rhumerus -410.378 -7.06231 279.716
rradius 38.3956
rwrist -44.895
rhand -16.5743 -14.9796
rfingers 7.12502
rthumb 9.64611 -44.7387
lclavicle 3.45078e-014 -3.11843e-015
lhumerus -54.7937 -41.5908 102.94
lradius 40.433
lwrist 55.7924
lhand -29.2112 22.7118
lfingers 7.12502
lthumb -2.55568 772.676
rfemur -252.245 -147.803 178.477
rtibia 115.97
rfoot 33.0027 17.2695
rtoes 14.4073
lfemur 102.446 168.53 167.636
ltibia 134.202
lfoot 11.2306 -11.3499
ltoes -15.4023
256
root 0.333803 3.09804 9.20944 -2407.58 -13.6277 179.641
lowerback 52.7269 3.7846 6.49911
upperback 24.8029 -6.4102 1.17554
thorax 7.27902 -9.09063 -0.527992
lowerneck -2.4836 6.56693 2.48298
upperneck 10.4039 9.26134 -10.3824
head 4.11663 3.98923 -3.15705
rclavicle 1.33201e-014 -5.15908e-015
rhumerus -410.936 -6.18034 279.313
rradius 39.5887
rwrist -45.657
rhand -16.7064 -15.2077
rfingers 7.12502
rthumb 9.51867 -44.9727
lclavicle 1.33201e-014 -5.15908e-015
lhumerus -55.2896 -41.7324 102.98
lradius 41.3694
lwrist 56.018
lhand -29.5008 22.7431
lfingers 7.12502
lthumb -2.83536 772.704
rfemur -252.789 -147.401 178.666
rtibia 116.229
rfoot 33.3515 17.3802
rtoes 14.6818
lfemur 102.304 169.318 167.102
ltibia 133.159
lfoot 12.2895 -10.9009
ltoes -14.3266
257
root 0.322773 3.0454 9.18404 -2407.57 -13.5201 179.591
lowerback 52.6631 3.76831 6.68793
upperback 24.9645 -6.46101 1.21637
thorax 7.48827 -9.14163 -0.595064
lowerneck -2.23121 6.76671 2.63963
upperneck 9.74362 9.50344 -10.3991
head 3.89925 4.1629 -3.18624
rclavicle 7.55692e-014 -3.09359e-014
rhumerus -411.506 -5.40908 278.985
rradius 40.7965
rwrist -46.3394
rhand -16.8302 -15.4522
rfingers 7.12502
rthumb 9.39922 -45.2226
lclavicle 7.55692e-014 -3.09359e-014
lhumerus -55.7828 -41.882 103.042
lradius 42.3108
lwrist 56.2243
lhand -29.8285 22.7281
lfingers 7.12502
lthumb -3.15182 772.685
rfemur -253.366 -147.032 178.869
rtibia 116.481
rfoot 33.7095 17.4113
rtoes 14.9191
lfemur 102.166 170.011 166.57
ltibia 132.102
lfoot 13.3887 -10.4021
ltoes -13.9577
